<svg xmlns="http://www.w3.org/2000/svg" xmlns:xlink="http://www.w3.org/1999/xlink" width="1600" zoomAndPan="magnify" viewBox="0 0 1200 299.999988" height="400" preserveAspectRatio="xMidYMid meet" version="1.0"><defs><g/><clipPath id="359de1f75c"><path d="M 592 88.578125 L 685.742188 88.578125 L 685.742188 167.328125 L 592 167.328125 Z M 592 88.578125 " clip-rule="nonzero"/></clipPath><clipPath id="7c7ea3a5fa"><path d="M 1036 98 L 1143.230469 98 L 1143.230469 187.476562 L 1036 187.476562 Z M 1036 98 " clip-rule="nonzero"/></clipPath></defs><rect x="-120" width="1440" fill="#ffffff" y="-29.999999" height="359.999986" fill-opacity="1"/><rect x="-120" width="1440" fill="#173562" y="-29.999999" height="359.999986" fill-opacity="1"/><g fill="#ffffff" fill-opacity="1"><g transform="translate(39.779816, 188.281881)"><g><path d="M 74.546875 -90.8125 L 94.421875 0 L 69.25 0 L 65.875 -15.78125 L 33.359375 -15.78125 L 24.5625 0 L -0.484375 0 L 48.78125 -90.8125 Z M 42.75 -33.84375 L 62.390625 -33.84375 L 57.328125 -62.75 L 57.09375 -62.75 Z M 42.75 -33.84375 "/></g></g></g><g fill="#ffffff" fill-opacity="1"><g transform="translate(131.188524, 188.281881)"><g><path d="M 45.640625 -90.8125 L 80.09375 -35.28125 L 80.328125 -35.28125 L 89.125 -90.8125 L 112.734375 -90.8125 L 98.390625 0 L 74.796875 0 L 40.34375 -55.640625 L 40.109375 -55.640625 L 31.3125 0 L 7.703125 0 L 22.046875 -90.8125 Z M 45.640625 -90.8125 "/></g></g></g><g fill="#ffffff" fill-opacity="1"><g transform="translate(234.640588, 188.281881)"><g><path d="M 55.640625 -90.8125 C 63.191406 -90.8125 69.957031 -89.144531 75.9375 -85.8125 C 81.914062 -82.476562 86.609375 -77.878906 90.015625 -72.015625 C 93.429688 -66.160156 95.140625 -59.898438 95.140625 -53.234375 C 95.140625 -44.078125 92.671875 -35.382812 87.734375 -27.15625 C 82.796875 -18.925781 76.113281 -12.34375 67.6875 -7.40625 C 59.257812 -2.46875 50.46875 0 41.3125 0 L 7.703125 0 L 22.046875 -90.8125 Z M 34.4375 -20 L 39.015625 -20 C 48.578125 -20 56.1875 -22.828125 61.84375 -28.484375 C 67.5 -34.140625 70.328125 -41.46875 70.328125 -50.46875 C 70.328125 -56.5625 68.421875 -61.472656 64.609375 -65.203125 C 60.796875 -68.941406 55.117188 -70.8125 47.578125 -70.8125 L 42.515625 -70.8125 Z M 34.4375 -20 "/></g></g></g><g fill="#ffffff" fill-opacity="1"><g transform="translate(322.556726, 188.281881)"><g><path d="M 74.546875 -90.8125 L 94.421875 0 L 69.25 0 L 65.875 -15.78125 L 33.359375 -15.78125 L 24.5625 0 L -0.484375 0 L 48.78125 -90.8125 Z M 42.75 -33.84375 L 62.390625 -33.84375 L 57.328125 -62.75 L 57.09375 -62.75 Z M 42.75 -33.84375 "/></g></g></g><g fill="#ffffff" fill-opacity="1"><g transform="translate(413.96544, 188.281881)"><g><path d="M 55.28125 -90.8125 L 66.125 -42.28125 L 93.21875 -90.8125 L 116.703125 -90.8125 L 116.109375 0 L 92.5 0 L 94.1875 -52.265625 L 93.9375 -52.265625 L 63.828125 0 L 54.4375 0 L 41.90625 -52.265625 L 41.671875 -52.265625 L 25.78125 0 L 2.28125 0 L 32.03125 -90.8125 Z M 55.28125 -90.8125 "/></g></g></g><path stroke-linecap="butt" transform="matrix(0.347472, 0, 0, 0.347472, 537.482092, 95.968125)" fill="none" stroke-linejoin="miter" d="M 396.228043 112.027532 C 396.228043 137.186949 388.943279 163.313172 374.396234 190.394957 C 359.837948 217.420533 339.276476 238.544101 312.700577 253.776902 C 286.124678 269.020946 257.581443 276.631726 227.048388 276.631726 C 190.321035 276.631726 160.507463 265.828241 137.59643 244.22127 C 114.752848 222.6143 103.331057 194.149758 103.331057 158.827646 C 103.331057 129.711073 110.998047 102.865367 126.343268 78.256804 C 141.744698 53.603274 162.677153 34.053575 189.140633 19.618949 C 215.604113 5.173082 242.910737 -2.055473 271.060505 -2.055473 C 293.510619 -2.055473 314.499284 2.801037 334.026499 12.502814 C 353.542472 22.204591 368.775274 35.694895 379.724904 52.962484 C 390.730744 70.162622 396.228043 89.858466 396.228043 112.027532 Z M 237.458406 210.7878 C 253.208336 210.7878 267.699171 206.470903 280.964636 197.837108 C 294.27507 189.158346 304.853717 177.950152 312.700577 164.246251 C 320.536195 150.474899 324.459625 136.883418 324.459625 123.449323 C 324.459625 106.811281 318.175392 92.702672 305.584441 81.134736 C 293.004733 69.578042 277.918076 63.788453 260.313229 63.788453 C 246.710506 63.788453 233.197718 67.509529 219.774865 74.962922 C 206.408222 82.348863 195.604737 92.286721 187.36441 104.75401 C 179.180292 117.221299 175.088233 131.071345 175.088233 146.304147 C 175.088233 165.033185 180.900306 180.468342 192.524451 192.598373 C 204.204806 204.728405 219.179044 210.7878 237.458406 210.7878 Z M 611.106103 94.343992 C 605.799917 85.091892 598.234105 77.975756 588.419908 73.01807 C 578.605712 68.049141 567.802227 65.564677 556.009453 65.564677 C 534.065225 65.564677 514.875267 74.007359 498.462064 90.870239 C 482.037619 107.744361 473.831017 127.743737 473.831017 150.868366 C 473.831017 168.192165 479.395768 182.244565 490.502785 193.014324 C 501.621044 203.739116 516.291749 209.101512 534.514902 209.101512 C 545.633161 209.101512 556.773903 206.617048 567.93713 201.648119 C 579.167808 196.690432 589.07194 189.911555 597.649525 181.345211 L 584.440269 262.83789 C 579.595001 264.423001 571.09611 266.81753 558.966078 270.032719 C 546.836046 273.304118 534.762224 274.934196 522.744611 274.934196 C 501.699737 274.934196 482.037619 270.369976 463.758257 261.230295 C 445.535104 252.090614 430.819431 239.286067 419.588753 222.805413 C 408.414284 206.27979 402.714631 187.011139 402.489792 165.010702 C 402.489792 135.444452 409.774557 108.137828 424.321601 83.09083 C 438.879888 57.976381 459.025408 37.808376 484.746922 22.575574 C 510.535886 7.342773 537.078059 -0.279249 564.384683 -0.279249 C 583.799479 -0.279249 603.765129 4.093858 624.304117 12.840072 Z M 810.425346 6.668257 L 867.635477 267.997931 L 795.192544 267.997931 L 785.546977 222.55809 L 691.94675 222.55809 L 666.641188 267.997931 L 594.535513 267.997931 L 736.284883 6.668257 Z M 718.9386 170.586694 L 775.474216 170.586694 L 760.91593 87.396485 L 760.241415 87.396485 Z M 1018.086093 6.668257 L 1049.316147 146.304147 L 1127.267621 6.668257 L 1194.876528 6.668257 L 1193.19024 267.997931 L 1125.232834 267.997931 L 1130.055617 117.524831 L 1129.381102 117.524831 L 1042.71714 267.997931 L 1015.635355 267.997931 L 979.582517 117.524831 L 978.908002 117.524831 L 933.209597 267.997931 L 865.589448 267.997931 L 951.230395 6.668257 Z M 1361.279429 6.668257 C 1386.450088 6.668257 1406.303319 12.334185 1420.861606 23.677282 C 1435.419892 34.96417 1442.693414 51.579728 1442.693414 73.523956 C 1442.693414 90.847755 1438.882404 108.643714 1431.271624 126.923076 C 1423.649602 145.202438 1411.294732 158.973791 1394.207013 168.225891 C 1377.108053 177.421781 1357.929337 181.794888 1336.659624 181.345211 L 1296.121261 181.345211 L 1282.237489 267.997931 L 1214.280083 267.997931 L 1255.582897 6.668257 Z M 1314.816574 61.416408 L 1304.755055 126.585819 L 1321.426823 126.585819 C 1340.605538 126.585819 1353.578714 123.112065 1360.34635 116.175801 C 1367.181437 109.239536 1370.587739 98.829518 1370.587739 84.945747 C 1370.587739 76.424371 1367.766017 70.38746 1362.133815 66.835014 C 1356.490371 63.226357 1347.429384 61.416408 1334.962094 61.416408 Z M 1734.949611 112.027532 C 1734.949611 137.186949 1727.664846 163.313172 1713.117802 190.394957 C 1698.559515 217.420533 1677.998043 238.544101 1651.422144 253.776902 C 1624.846245 269.020946 1596.30301 276.631726 1565.769955 276.631726 C 1529.042603 276.631726 1499.229031 265.828241 1476.317997 244.22127 C 1453.474416 222.6143 1442.052625 194.149758 1442.052625 158.827646 C 1442.052625 129.711073 1449.719615 102.865367 1465.064835 78.256804 C 1480.466266 53.603274 1501.398721 34.053575 1527.862201 19.618949 C 1554.325681 5.173082 1581.632305 -2.055473 1609.782072 -2.055473 C 1632.232187 -2.055473 1653.220852 2.801037 1672.748067 12.502814 C 1692.26404 22.204591 1707.496842 35.694895 1718.446472 52.962484 C 1729.452312 70.162622 1734.949611 89.858466 1734.949611 112.027532 Z M 1576.179973 210.7878 C 1591.929903 210.7878 1606.420738 206.470903 1619.686204 197.837108 C 1632.996637 189.158346 1643.575284 177.950152 1651.422144 164.246251 C 1659.257763 150.474899 1663.181193 136.883418 1663.181193 123.449323 C 1663.181193 106.811281 1656.896959 92.702672 1644.306009 81.134736 C 1631.7263 69.578042 1616.639644 63.788453 1599.034797 63.788453 C 1585.432074 63.788453 1571.919286 67.509529 1558.496433 74.962922 C 1545.12979 82.348863 1534.326305 92.286721 1526.085978 104.75401 C 1517.90186 117.221299 1513.809801 131.071345 1513.809801 146.304147 C 1513.809801 165.033185 1519.621874 180.468342 1531.246019 192.598373 C 1542.926374 204.728405 1557.900611 210.7878 1576.179973 210.7878 Z M 1576.179973 210.7878 " stroke="#ffffff" stroke-width="7.582772" stroke-opacity="1" stroke-miterlimit="4"/><g clip-path="url(#359de1f75c)"><path fill="#f2f2f2" d="M 685.167969 91.753906 L 626.914062 160.699219 L 621.332031 167.304688 L 614.726562 161.453125 L 594.671875 143.679688 C 591.535156 140.902344 591.242188 136.101562 594.011719 132.957031 C 596.574219 130.054688 600.855469 129.582031 603.964844 131.71875 L 619.8125 142.585938 L 682.652344 89.234375 C 683.402344 88.59375 684.53125 88.6875 685.167969 89.441406 C 685.738281 90.117188 685.722656 91.097656 685.167969 91.753906 " fill-opacity="1" fill-rule="nonzero"/></g><g clip-path="url(#7c7ea3a5fa)"><path fill="#ffffff" d="M 1046.109375 183.726562 C 1050.800781 184.546875 1055.921875 184.976562 1061.214844 184.976562 C 1076.921875 184.976562 1094.121094 181.195312 1106 172.601562 C 1116.140625 165.265625 1121.28125 155.480469 1121.28125 143.511719 C 1121.28125 130.027344 1112.789062 117.804688 1100.152344 113.105469 C 1099.8125 112.980469 1099.566406 112.6875 1099.5 112.332031 C 1099.433594 111.976562 1099.558594 111.617188 1099.828125 111.375 C 1105.46875 106.375 1114.339844 103.226562 1126.191406 102.019531 C 1128.65625 101.769531 1130.984375 101.632812 1133.058594 101.5625 C 1114.410156 98.429688 1088.765625 101.625 1072.359375 113.492188 C 1061.777344 121.144531 1056.410156 131.25 1056.410156 143.511719 C 1056.410156 156.820312 1064.75 168.980469 1077.15625 173.777344 C 1077.511719 173.910156 1077.757812 174.230469 1077.804688 174.605469 C 1077.851562 174.980469 1077.691406 175.351562 1077.382812 175.570312 C 1071.480469 179.78125 1062.886719 182.414062 1051.839844 183.386719 C 1049.796875 183.566406 1047.859375 183.671875 1046.109375 183.726562 Z M 1061.3125 187.058594 C 1052.378906 187.058594 1043.800781 185.851562 1036.796875 183.546875 C 1036.300781 183.382812 1036.007812 182.875 1036.109375 182.367188 C 1036.214844 181.859375 1036.683594 181.507812 1037.199219 181.546875 C 1037.441406 181.566406 1060.90625 183.324219 1074.621094 174.9375 C 1068.96875 172.378906 1064.132812 168.363281 1060.550781 163.230469 C 1056.5 157.433594 1054.359375 150.613281 1054.359375 143.511719 C 1054.359375 136.820312 1055.921875 130.632812 1059 125.136719 C 1061.816406 120.105469 1065.90625 115.628906 1071.160156 111.828125 C 1080.25 105.253906 1092.992188 100.722656 1107.046875 99.066406 C 1119.847656 97.558594 1132.773438 98.535156 1142.503906 101.742188 C 1142.996094 101.902344 1143.289062 102.410156 1143.1875 102.917969 C 1143.085938 103.425781 1142.617188 103.78125 1142.101562 103.738281 C 1141.832031 103.71875 1115.726562 101.769531 1102.5 111.835938 C 1108.324219 114.34375 1113.320312 118.394531 1117.019531 123.621094 C 1121.152344 129.457031 1123.332031 136.335938 1123.332031 143.511719 C 1123.332031 150.050781 1121.835938 156.070312 1118.886719 161.398438 C 1116.183594 166.28125 1112.253906 170.609375 1107.203125 174.261719 C 1098.347656 180.667969 1085.824219 185.011719 1071.9375 186.492188 C 1068.390625 186.871094 1064.824219 187.058594 1061.3125 187.058594 Z M 1061.3125 187.058594 " fill-opacity="1" fill-rule="evenodd"/></g><path fill="#ffffff" d="M 1088.488281 119.328125 C 1075.589844 119.328125 1065.097656 129.820312 1065.097656 142.714844 C 1065.101562 155.609375 1075.589844 166.105469 1088.488281 166.105469 C 1101.382812 166.105469 1111.875 155.609375 1111.875 142.714844 C 1111.875 129.820312 1101.382812 119.328125 1088.488281 119.328125 Z M 1088.488281 168.15625 C 1074.460938 168.15625 1063.046875 156.746094 1063.046875 142.714844 C 1063.046875 128.6875 1074.460938 117.277344 1088.488281 117.277344 C 1102.515625 117.277344 1113.929688 128.6875 1113.929688 142.714844 C 1113.929688 156.742188 1102.515625 168.15625 1088.488281 168.15625 Z M 1088.488281 168.15625 " fill-opacity="1" fill-rule="evenodd"/><path fill="#ffffff" d="M 1088.488281 133.855469 C 1083.605469 133.855469 1079.628906 137.832031 1079.628906 142.714844 C 1079.628906 147.601562 1083.605469 151.574219 1088.488281 151.574219 C 1093.371094 151.574219 1097.34375 147.601562 1097.34375 142.714844 C 1097.347656 137.832031 1093.371094 133.855469 1088.488281 133.855469 Z M 1088.488281 153.628906 C 1082.472656 153.628906 1077.574219 148.734375 1077.574219 142.714844 C 1077.578125 136.699219 1082.472656 131.804688 1088.488281 131.804688 C 1094.503906 131.804688 1099.398438 136.699219 1099.398438 142.714844 C 1099.398438 148.734375 1094.503906 153.628906 1088.488281 153.628906 Z M 1088.488281 153.628906 " fill-opacity="1" fill-rule="evenodd"/><path fill="#ffffff" d="M 1088.488281 133.855469 C 1083.605469 133.855469 1079.628906 137.832031 1079.628906 142.714844 C 1079.628906 147.601562 1083.605469 151.574219 1088.488281 151.574219 C 1093.371094 151.574219 1097.34375 147.601562 1097.34375 142.714844 C 1097.347656 137.832031 1093.371094 133.855469 1088.488281 133.855469 Z M 1088.488281 133.855469 " fill-opacity="1" fill-rule="evenodd"/><path fill="#173562" d="M 1099.398438 142.714844 C 1099.398438 148.734375 1094.503906 153.628906 1088.488281 153.628906 C 1082.472656 153.628906 1077.574219 148.734375 1077.574219 142.714844 C 1077.578125 136.699219 1082.472656 131.804688 1088.488281 131.804688 C 1094.503906 131.804688 1099.398438 136.699219 1099.398438 142.714844 Z M 1065.097656 142.714844 C 1065.101562 155.609375 1075.589844 166.105469 1088.488281 166.105469 C 1101.382812 166.105469 1111.875 155.609375 1111.875 142.714844 C 1111.875 129.820312 1101.382812 119.328125 1088.488281 119.328125 C 1075.589844 119.328125 1065.097656 129.820312 1065.097656 142.714844 Z M 1065.097656 142.714844 " fill-opacity="1" fill-rule="evenodd"/><path fill="#ffffff" d="M 1113.929688 142.714844 C 1113.929688 156.742188 1102.515625 168.15625 1088.488281 168.15625 C 1074.460938 168.15625 1063.046875 156.746094 1063.046875 142.714844 C 1063.046875 128.6875 1074.460938 117.277344 1088.488281 117.277344 C 1102.515625 117.277344 1113.929688 128.6875 1113.929688 142.714844 Z M 1056.410156 143.511719 C 1056.410156 156.820312 1064.75 168.980469 1077.15625 173.777344 C 1077.511719 173.914062 1077.757812 174.230469 1077.804688 174.605469 C 1077.851562 174.980469 1077.691406 175.351562 1077.382812 175.570312 C 1071.480469 179.78125 1062.886719 182.414062 1051.839844 183.386719 C 1049.796875 183.566406 1047.859375 183.671875 1046.109375 183.726562 C 1050.800781 184.546875 1055.921875 184.976562 1061.214844 184.976562 C 1076.921875 184.976562 1094.121094 181.195312 1106 172.601562 C 1116.140625 165.265625 1121.28125 155.480469 1121.28125 143.511719 C 1121.28125 130.027344 1112.789062 117.804688 1100.152344 113.105469 C 1099.8125 112.980469 1099.566406 112.6875 1099.5 112.332031 C 1099.433594 111.976562 1099.558594 111.617188 1099.828125 111.375 C 1105.46875 106.375 1114.339844 103.226562 1126.191406 102.019531 C 1128.65625 101.769531 1130.984375 101.632812 1133.058594 101.5625 C 1114.410156 98.433594 1088.765625 101.625 1072.359375 113.492188 C 1061.777344 121.144531 1056.410156 131.25 1056.410156 143.511719 Z M 1056.410156 143.511719 " fill-opacity="1" fill-rule="evenodd"/></svg>