<svg xmlns="http://www.w3.org/2000/svg" xmlns:xlink="http://www.w3.org/1999/xlink" width="500" zoomAndPan="magnify" viewBox="0 0 375 374.999991" height="500" preserveAspectRatio="xMidYMid meet" version="1.0"><defs><g/><clipPath id="0a7faae95e"><path d="M 23.109375 53 L 352.347656 53 L 352.347656 326.632812 L 23.109375 326.632812 Z M 23.109375 53 " clip-rule="nonzero"/></clipPath></defs><path stroke-linecap="butt" transform="matrix(0.885964, 0, 0, 0.885964, -65.053899, 123.480563)" fill="none" stroke-linejoin="miter" d="M 452.657419 49.826433 C 452.657419 78.732087 444.297883 108.740001 427.574401 139.850174 C 410.850919 170.894211 387.227293 195.165966 356.703522 212.665439 C 326.175342 230.164911 293.380916 238.916852 258.315836 238.916852 C 216.121341 238.916852 181.867524 226.505409 155.554385 201.682525 C 129.307381 176.85964 116.181674 144.162213 116.181674 103.585835 C 116.181674 70.143281 124.995341 39.293241 142.627085 11.035716 C 160.320555 -17.287945 184.36304 -39.747585 214.763358 -56.338796 C 245.159266 -72.930006 276.529573 -81.227816 308.869867 -81.227816 C 334.667149 -81.227816 358.77577 -75.654792 381.200138 -64.504334 C 403.624506 -53.358286 421.123978 -37.864926 433.698555 -18.033072 C 446.339267 1.732646 452.657419 24.35542 452.657419 49.826433 Z M 270.273148 163.279803 C 288.354613 163.279803 305.011959 158.319635 320.245186 148.403708 C 335.540139 138.426055 347.691448 125.560481 356.703522 109.811397 C 365.711187 93.996177 370.217224 78.374955 370.217224 62.947731 C 370.217224 43.830142 362.986401 27.626926 348.533574 14.338086 C 334.080747 1.053654 316.744409 -5.590767 296.524561 -5.590767 C 280.903339 -5.590767 265.379115 -1.314 249.9563 7.243943 C 234.595211 15.731342 222.183769 27.141932 212.721973 41.462488 C 203.321904 55.787453 198.621869 71.699672 198.621869 89.199144 C 198.621869 110.71525 205.297153 128.443992 218.652129 142.376553 C 232.064423 156.313522 249.272899 163.279803 270.273148 163.279803 Z M 270.273148 163.279803 " stroke="#ffffff" stroke-width="14.93295" stroke-opacity="1" stroke-miterlimit="4"/><g fill="#176240" fill-opacity="1"><g transform="translate(8.937956, 326.366368)"><g><path d="M 327.046875 -158.765625 C 327.046875 -133.117188 319.632812 -106.535156 304.8125 -79.015625 C 290 -51.503906 269.066406 -29.988281 242.015625 -14.46875 C 214.972656 1.050781 185.925781 8.8125 154.875 8.8125 C 117.476562 8.8125 87.132812 -2.179688 63.84375 -24.171875 C 40.5625 -46.160156 28.921875 -75.144531 28.921875 -111.125 C 28.921875 -140.757812 36.738281 -168.101562 52.375 -193.15625 C 68.019531 -218.207031 89.304688 -238.082031 116.234375 -252.78125 C 143.171875 -267.476562 170.988281 -274.828125 199.6875 -274.828125 C 222.5 -274.828125 243.84375 -269.882812 263.71875 -260 C 283.59375 -250.125 299.113281 -236.425781 310.28125 -218.90625 C 321.457031 -201.382812 327.046875 -181.335938 327.046875 -158.765625 Z M 165.46875 -58.21875 C 181.457031 -58.21875 196.210938 -62.625 209.734375 -71.4375 C 223.265625 -80.257812 234.023438 -91.664062 242.015625 -105.65625 C 250.015625 -119.65625 254.015625 -133.472656 254.015625 -147.109375 C 254.015625 -164.046875 247.601562 -178.394531 234.78125 -190.15625 C 221.96875 -201.914062 206.625 -207.796875 188.75 -207.796875 C 174.875 -207.796875 161.113281 -204.03125 147.46875 -196.5 C 133.820312 -188.976562 122.820312 -178.863281 114.46875 -166.15625 C 106.125 -153.457031 101.953125 -139.347656 101.953125 -123.828125 C 101.953125 -104.773438 107.890625 -89.078125 119.765625 -76.734375 C 131.648438 -64.390625 146.882812 -58.21875 165.46875 -58.21875 Z M 165.46875 -58.21875 "/></g></g></g><g clip-path="url(#0a7faae95e)"><path fill="#ffffff" d="M 54.21875 315.992188 C 68.625 318.511719 84.363281 319.832031 100.617188 319.839844 C 148.847656 319.835938 201.671875 308.21875 238.15625 281.824219 C 269.300781 259.300781 285.085938 229.238281 285.085938 192.492188 C 285.089844 151.070312 259.011719 113.539062 220.195312 99.101562 C 219.160156 98.714844 218.398438 97.816406 218.195312 96.726562 C 217.992188 95.636719 218.378906 94.527344 219.207031 93.792969 C 236.53125 78.4375 263.773438 68.769531 300.171875 65.058594 C 307.742188 64.285156 314.882812 63.863281 321.257812 63.65625 C 263.988281 54.035156 185.226562 63.84375 134.84375 100.292969 C 102.34375 123.796875 85.859375 154.824219 85.859375 192.492188 C 85.859375 233.355469 111.46875 270.707031 149.574219 285.4375 C 150.65625 285.851562 151.417969 286.832031 151.5625 287.980469 C 151.707031 289.128906 151.214844 290.269531 150.269531 290.941406 C 132.140625 303.878906 105.75 311.960938 71.824219 314.953125 C 65.542969 315.503906 59.601562 315.828125 54.21875 315.992188 Z M 100.910156 326.226562 C 73.472656 326.226562 47.128906 322.523438 25.617188 315.441406 C 24.101562 314.933594 23.199219 313.386719 23.515625 311.824219 C 23.832031 310.261719 25.265625 309.175781 26.855469 309.300781 C 27.605469 309.359375 99.671875 314.757812 141.78125 289.003906 C 124.425781 281.144531 109.578125 268.8125 98.566406 253.050781 C 86.136719 235.238281 79.554688 214.296875 79.554688 192.492188 C 79.558594 171.9375 84.355469 152.941406 93.816406 136.046875 C 102.460938 120.601562 115.023438 106.847656 131.15625 95.183594 C 159.074219 74.992188 198.210938 61.066406 241.375 55.988281 C 280.691406 51.359375 320.378906 54.351562 350.269531 64.199219 C 351.785156 64.699219 352.683594 66.253906 352.367188 67.816406 C 352.054688 69.378906 350.617188 70.460938 349.035156 70.335938 C 348.199219 70.269531 268.027344 64.285156 227.40625 95.203125 C 245.300781 102.910156 260.640625 115.34375 271.996094 131.394531 C 284.6875 149.328125 291.390625 170.453125 291.390625 192.492188 C 291.390625 212.574219 286.792969 231.058594 277.734375 247.421875 C 269.429688 262.417969 257.359375 275.710938 241.847656 286.929688 C 214.652344 306.601562 176.1875 319.941406 133.542969 324.492188 C 122.648438 325.652344 111.695312 326.226562 100.910156 326.226562 Z M 100.910156 326.226562 " fill-opacity="1" fill-rule="evenodd"/></g><path fill="#ffffff" d="M 184.375 118.214844 C 144.761719 118.214844 112.542969 150.4375 112.542969 190.042969 C 112.542969 229.648438 144.761719 261.875 184.375 261.875 C 223.976562 261.871094 256.203125 229.648438 256.203125 190.042969 C 256.203125 150.4375 223.976562 118.214844 184.375 118.214844 Z M 184.375 268.175781 C 141.289062 268.175781 106.242188 233.125 106.242188 190.042969 C 106.242188 146.960938 141.289062 111.910156 184.375 111.910156 C 227.457031 111.910156 262.503906 146.960938 262.503906 190.042969 C 262.507812 233.125 227.457031 268.175781 184.375 268.175781 Z M 184.375 268.175781 " fill-opacity="1" fill-rule="evenodd"/><path fill="#ffffff" d="M 184.375 162.832031 C 169.375 162.832031 157.164062 175.042969 157.164062 190.042969 C 157.164062 205.042969 169.375 217.253906 184.375 217.253906 C 199.375 217.253906 211.578125 205.042969 211.578125 190.042969 C 211.578125 175.042969 199.375 162.832031 184.375 162.832031 Z M 184.375 223.554688 C 165.894531 223.554688 150.859375 208.523438 150.859375 190.042969 C 150.863281 171.5625 165.894531 156.53125 184.375 156.53125 C 202.847656 156.53125 217.878906 171.5625 217.878906 190.042969 C 217.878906 208.523438 202.847656 223.554688 184.375 223.554688 Z M 184.375 223.554688 " fill-opacity="1" fill-rule="evenodd"/><path fill="#ffffff" d="M 184.375 162.832031 C 169.375 162.832031 157.164062 175.042969 157.164062 190.042969 C 157.164062 205.042969 169.375 217.253906 184.375 217.253906 C 199.375 217.253906 211.578125 205.042969 211.578125 190.042969 C 211.578125 175.042969 199.375 162.832031 184.375 162.832031 Z M 184.375 162.832031 " fill-opacity="1" fill-rule="evenodd"/><path fill="#173562" d="M 217.878906 190.042969 C 217.878906 208.523438 202.847656 223.554688 184.375 223.554688 C 165.894531 223.554688 150.859375 208.523438 150.859375 190.042969 C 150.863281 171.5625 165.894531 156.53125 184.375 156.53125 C 202.847656 156.53125 217.878906 171.5625 217.878906 190.042969 Z M 112.542969 190.042969 C 112.542969 229.648438 144.761719 261.875 184.375 261.875 C 223.976562 261.871094 256.203125 229.648438 256.203125 190.042969 C 256.203125 150.4375 223.976562 118.214844 184.375 118.214844 C 144.761719 118.214844 112.542969 150.4375 112.542969 190.042969 Z M 112.542969 190.042969 " fill-opacity="1" fill-rule="evenodd"/><path fill="#ffffff" d="M 262.503906 190.042969 C 262.507812 233.125 227.457031 268.175781 184.375 268.175781 C 141.289062 268.175781 106.242188 233.125 106.242188 190.042969 C 106.242188 146.960938 141.289062 111.910156 184.375 111.910156 C 227.457031 111.910156 262.503906 146.960938 262.503906 190.042969 Z M 85.859375 192.492188 C 85.859375 233.355469 111.46875 270.710938 149.574219 285.441406 C 150.65625 285.851562 151.417969 286.832031 151.5625 287.980469 C 151.707031 289.128906 151.214844 290.273438 150.269531 290.941406 C 132.140625 303.878906 105.75 311.960938 71.824219 314.953125 C 65.542969 315.503906 59.601562 315.828125 54.21875 315.992188 C 68.625 318.511719 84.363281 319.832031 100.617188 319.839844 C 148.847656 319.839844 201.671875 308.21875 238.15625 281.824219 C 269.300781 259.300781 285.085938 229.242188 285.085938 192.492188 C 285.089844 151.070312 259.011719 113.539062 220.195312 99.105469 C 219.160156 98.714844 218.398438 97.816406 218.195312 96.726562 C 217.992188 95.636719 218.378906 94.527344 219.207031 93.792969 C 236.53125 78.4375 263.773438 68.769531 300.171875 65.058594 C 307.742188 64.285156 314.882812 63.863281 321.257812 63.65625 C 263.988281 54.039062 185.226562 63.84375 134.84375 100.292969 C 102.34375 123.800781 85.859375 154.824219 85.859375 192.492188 Z M 85.859375 192.492188 " fill-opacity="1" fill-rule="evenodd"/></svg>